<svg width="28" height="28" viewBox="0 0 28 28" fill="none" xmlns="http://www.w3.org/2000/svg">
<path d="M27.3337 14C27.3337 16.4178 26.7381 18.6489 25.547 20.6934C24.3559 22.7378 22.7381 24.3556 20.6937 25.5467C18.6492 26.7378 16.4181 27.3334 14.0003 27.3334C11.5826 27.3334 9.35145 26.7378 7.307 25.5467C5.26255 24.3556 3.64477 22.7378 2.45366 20.6934C1.26255 18.6489 0.666992 16.4178 0.666992 14C0.666992 11.5822 1.26255 9.35113 2.45366 7.30669C3.64477 5.26224 5.26255 3.64446 7.307 2.45335C9.35145 1.26224 11.5826 0.666687 14.0003 0.666687C16.4181 0.666687 18.6492 1.26224 20.6937 2.45335C22.7381 3.64446 24.3559 5.26224 25.547 7.30669C26.7381 9.35113 27.3337 11.5822 27.3337 14ZM24.2137 14C24.2137 11.1911 23.2137 8.78669 21.2137 6.78669C19.2137 4.78669 16.8092 3.78669 14.0003 3.78669C11.7603 3.78669 9.75145 4.44446 7.97367 5.76002L22.2404 20.0267C23.5559 18.2489 24.2137 16.24 24.2137 14ZM20.027 22.24L5.76033 7.97335C4.44477 9.75113 3.787 11.76 3.787 14C3.787 16.8089 4.787 19.2134 6.787 21.2134C8.787 23.2134 11.1915 24.2134 14.0003 24.2134C16.2403 24.2134 18.2492 23.5556 20.027 22.24Z" fill="white"/>
</svg>
