<svg width="74" height="94" viewBox="0 0 74 94" fill="none" xmlns="http://www.w3.org/2000/svg">
<path d="M5.85218 83.2965C5.85218 86.0469 6.94477 88.6846 8.88959 90.6294C10.8344 92.5742 13.4722 93.6668 16.2225 93.6668H57.704C60.4544 93.6668 63.0922 92.5742 65.037 90.6294C66.9818 88.6846 68.0744 86.0469 68.0744 83.2965V21.0742H5.85218V83.2965ZM18.6077 46.3779L25.9188 39.0668L36.9633 50.0594L47.9559 39.0668L55.267 46.3779L44.2744 57.3705L55.267 68.3631L47.9559 75.6742L36.9633 64.6816L25.9707 75.6742L18.6596 68.3631L29.6522 57.3705L18.6077 46.3779ZM55.1114 5.51868L49.9263 0.333496H24.0003L18.8151 5.51868H0.666992V15.8891H73.2596V5.51868H55.1114Z" fill="#890203"/>
</svg>
