<svg width="27" height="32" viewBox="0 0 27 32" fill="none" xmlns="http://www.w3.org/2000/svg">
<path d="M7.49461 20.2891C7.20021 20.2891 7.00181 20.3179 6.89941 20.3467V22.2315C7.02101 22.2603 7.17301 22.2683 7.38261 22.2683C8.14901 22.2683 8.62101 21.8811 8.62101 21.2267C8.62101 20.6411 8.21461 20.2891 7.49461 20.2891ZM13.0738 20.3083C12.7538 20.3083 12.5458 20.3371 12.4226 20.3659V24.5419C12.5458 24.5707 12.7442 24.5707 12.9234 24.5707C14.2306 24.5803 15.0818 23.8603 15.0818 22.3371C15.0914 21.0091 14.3154 20.3083 13.0738 20.3083Z" fill="#C80A0A"/>
<path d="M16.667 0H3.86699C3.0183 0 0.666992 0 0.666992 0C0.666992 0 0.666992 2.35131 0.666992 3.2V28.8C0.666992 29.6487 0.666992 32 0.666992 32C0.666992 32 3.0183 32 3.86699 32H23.067C23.9157 32 26.267 32 26.267 32C26.267 32 26.267 29.6487 26.267 28.8V9.6L16.667 0ZM9.46379 22.704C8.96939 23.168 8.23979 23.376 7.39019 23.376C7.22546 23.3778 7.0608 23.3682 6.89739 23.3472V25.6288H5.46699V19.3312C6.11252 19.2349 6.76478 19.191 7.41739 19.2C8.30859 19.2 8.94219 19.3696 9.36939 19.7104C9.77579 20.0336 10.051 20.5632 10.051 21.1872C10.0494 21.8144 9.84139 22.344 9.46379 22.704ZM15.555 24.872C14.883 25.4304 13.8606 25.696 12.611 25.696C11.8622 25.696 11.3326 25.648 10.9726 25.6V19.3328C11.6184 19.2385 12.2704 19.1941 12.923 19.2C14.1342 19.2 14.9214 19.4176 15.5358 19.8816C16.1998 20.3744 16.6158 21.16 16.6158 22.288C16.6158 23.5088 16.1694 24.352 15.555 24.872ZM21.467 20.432H19.0158V21.8896H21.307V23.064H19.0158V25.6304H17.5662V19.248H21.467V20.432ZM16.667 11.2H15.067V3.2L23.067 11.2H16.667Z" fill="#C80A0A"/>
</svg>
