<svg width="27" height="32" viewBox="0 0 27 32" fill="none" xmlns="http://www.w3.org/2000/svg">
<path d="M13.7644 20.083C12.7772 20.083 12.2012 21.0222 12.2012 22.2798C12.2012 23.5454 12.7948 24.4398 13.774 24.4398C14.7612 24.4398 15.3276 23.499 15.3276 22.2414C15.3276 21.0798 14.7708 20.083 13.7644 20.083Z" fill="#2C5898"/>
<path d="M16.667 0H3.86699C3.0183 0 0.666992 0 0.666992 0C0.666992 0 0.666992 2.35131 0.666992 3.2V28.8C0.666992 29.6487 0.666992 32 0.666992 32C0.666992 32 3.0183 32 3.86699 32H23.067C23.9157 32 26.267 32 26.267 32C26.267 32 26.267 29.6487 26.267 28.8V9.6L16.667 0ZM8.91499 24.7264C8.23339 25.2928 7.19819 25.56 5.93259 25.56C5.17259 25.56 4.63659 25.512 4.27179 25.464V19.1104C4.92615 19.0162 5.58671 18.9718 6.24779 18.9776C7.47659 18.9776 8.27339 19.1984 8.89579 19.6688C9.56779 20.168 9.99019 20.9648 9.99019 22.104C9.99019 23.344 9.53899 24.1984 8.91499 24.7264ZM13.699 25.6C11.779 25.6 10.6574 24.1504 10.6574 22.3072C10.6574 20.3696 11.8942 18.9216 13.8046 18.9216C15.7902 18.9216 16.875 20.408 16.875 22.1936C16.8734 24.3136 15.587 25.6 13.699 25.6ZM21.147 24.3808C21.587 24.3808 22.0766 24.2832 22.3662 24.1696L22.587 25.3104C22.3182 25.4448 21.7134 25.5888 20.9278 25.5888C18.6926 25.5888 17.5406 24.1984 17.5406 22.3552C17.5406 20.1488 19.1134 18.9216 21.0718 18.9216C21.8302 18.9216 22.4046 19.0752 22.6638 19.2096L22.3662 20.3712C21.9767 20.2102 21.5589 20.1286 21.1374 20.1312C19.9758 20.1312 19.0734 20.832 19.0734 22.272C19.0734 23.5664 19.8414 24.3808 21.147 24.3808ZM16.667 11.2H15.067V3.2L23.067 11.2H16.667Z" fill="#2C5898"/>
<path d="M6.40103 20.1016C6.07623 20.1016 5.86503 20.1304 5.74023 20.1592V24.3912C5.86503 24.42 6.06663 24.42 6.24743 24.42C7.57223 24.4296 8.43463 23.7016 8.43463 22.156C8.44423 20.812 7.65863 20.1016 6.40103 20.1016Z" fill="#2C5898"/>
</svg>
