<svg width="182" height="54" viewBox="0 0 182 54" fill="none" xmlns="http://www.w3.org/2000/svg">
<path d="M116.927 52.336H119.652L128.567 26.3018H123.444L121.217 33.4098H120.856H112.414L110.161 26.3104H105.098L114.116 52.3446H116.833H116.927V52.336ZM121.14 33.6505L116.833 46.9212L116.781 46.7063L113.583 36.9854L121.14 33.6505Z" fill="url(#paint0_linear)"/>
<path d="M113.574 36.9835L112.413 33.3994H121.208L121.139 33.6487L113.574 36.9835Z" fill="url(#paint1_linear)"/>
<path d="M88.9868 33.511L83.1237 52.1192H75.5928V26.2568H80.8369V43.421L86.2616 26.2568H91.5917L97.1281 43.4898V26.2568H102.372V52.1192H94.9102L88.9868 33.511Z" fill="url(#paint2_linear)"/>
<path d="M127.493 47.9248H135.153V26.2568H140.345V47.9248H147.954V52.1192H127.493V47.9248Z" fill="url(#paint3_linear)"/>
<path d="M156.937 26.2568H151.71V52.1192H156.937V26.2568Z" fill="url(#paint4_linear)"/>
<path d="M176.77 37.4487L176.796 36.529C176.813 35.979 176.796 35.4203 176.744 34.896C176.693 34.3889 176.598 33.9075 176.461 33.452C176.332 33.0223 176.142 32.6097 175.919 32.2487C175.704 31.9049 175.455 31.6299 175.128 31.3806C174.819 31.1486 174.432 30.9509 173.985 30.8133C173.529 30.6672 172.979 30.5985 172.351 30.5985C171.526 30.5985 170.838 30.736 170.314 30.9939C169.764 31.2689 169.334 31.6213 168.981 32.0682C168.612 32.541 168.328 33.091 168.147 33.7099C167.941 34.3803 167.786 35.0851 167.683 35.7985C167.58 36.529 167.528 37.251 167.52 37.9644C167.511 38.7036 167.511 39.3826 167.511 39.9928C167.511 40.5257 167.52 41.1273 167.546 41.8063C167.571 42.451 167.64 43.1386 167.752 43.8262C167.864 44.488 168.027 45.1584 168.25 45.8116C168.465 46.4133 168.758 46.9548 169.119 47.4189C169.471 47.8658 169.901 48.2096 170.434 48.4847C170.933 48.7425 171.578 48.8714 172.351 48.8714C173.237 48.8714 173.967 48.7597 174.526 48.5276C175.076 48.3042 175.498 48.0119 175.816 47.6509C176.142 47.2728 176.383 46.8172 176.529 46.3015C176.684 45.7343 176.779 45.1154 176.796 44.4536L176.813 43.5769H181.954L181.98 44.445C182.014 45.6225 181.842 46.7485 181.455 47.7799C181.068 48.8371 180.458 49.7653 179.65 50.556C178.842 51.3382 177.836 51.957 176.65 52.404C175.472 52.8509 174.122 53.0744 172.618 53.0744C171.105 53.0744 169.772 52.8767 168.655 52.4899C167.528 52.0946 166.557 51.5531 165.766 50.8655C164.984 50.1951 164.339 49.3957 163.857 48.4933C163.393 47.6338 163.032 46.7055 162.783 45.7428C162.534 44.7974 162.37 43.809 162.284 42.812C162.198 41.8321 162.155 40.8695 162.155 39.9498C162.155 38.9786 162.181 37.9816 162.233 36.9846C162.284 35.9532 162.413 34.9304 162.62 33.9419C162.826 32.9449 163.153 31.9823 163.574 31.097C164.021 30.1687 164.648 29.335 165.439 28.6302C166.239 27.9168 167.236 27.3582 168.422 26.9542C169.583 26.5588 170.993 26.3525 172.618 26.3525C173.753 26.3525 174.793 26.4815 175.713 26.7393C176.641 26.9972 177.475 27.3668 178.189 27.8481C178.902 28.3208 179.521 28.8967 180.028 29.5499C180.518 30.1859 180.922 30.8907 181.223 31.6557C181.524 32.3948 181.731 33.2028 181.851 34.0451C181.963 34.8616 182.006 35.7211 181.971 36.5892L181.937 37.4487H176.77Z" fill="url(#paint5_linear)"/>
<path d="M1.76237 26.3623H0V52.6286H1.76237V26.3623Z" fill="url(#paint6_linear)"/>
<path d="M25.4377 42.9231C25.5151 41.8487 25.5495 40.7657 25.5495 39.657C25.5495 38.5826 25.5066 37.5168 25.4292 36.4425C25.3432 35.3681 25.1799 34.3367 24.9305 33.3483C24.6812 32.3684 24.3373 31.4488 23.8989 30.5979C23.4605 29.747 22.8844 29.0078 22.1709 28.3804C21.4573 27.7529 20.5805 27.263 19.5574 26.902C18.5258 26.541 17.3136 26.3691 15.8951 26.3691H7.13477V52.6354H15.2933C16.8322 52.6354 18.1561 52.4721 19.2651 52.1369C20.3741 51.8017 21.3112 51.3375 22.0677 50.7445C22.8243 50.1514 23.4347 49.4467 23.8903 48.6301C24.3459 47.8136 24.6984 46.9283 24.9392 45.9657C25.1971 45.003 25.3604 43.9888 25.4377 42.9231ZM23.77 39.6484C23.77 40.6712 23.727 41.6596 23.6496 42.6223C23.5722 43.5763 23.4175 44.4787 23.1853 45.3125C22.9618 46.1462 22.6524 46.9197 22.2569 47.6245C21.8614 48.3293 21.3542 48.9396 20.718 49.4639C20.0904 49.9796 19.3339 50.3921 18.4398 50.6929C17.5457 50.9938 16.4969 51.1742 15.2933 51.2258H8.91435V27.7701H15.8865C17.305 27.7701 18.5172 28.0194 19.5145 28.5179C20.5117 29.0164 21.3284 29.7642 21.9474 30.7526C22.5749 31.741 23.0306 32.9787 23.3229 34.4656C23.6324 35.9439 23.77 37.6801 23.77 39.6484Z" fill="url(#paint7_linear)"/>
<path d="M67.1763 28.6218L53.2321 52.6362H50.8594V26.3613H52.6389V50.3757L66.5831 26.3613H68.9559V52.6362H67.1763V28.6218Z" fill="url(#paint8_linear)"/>
<path d="M32.5823 39.3312V40.7235V51.2266H45.4433V52.6362H30.8027V26.3613H45.5035V27.7709H32.5823V39.3312Z" fill="url(#paint9_linear)"/>
<path d="M44.8671 39.3486H34.1982V40.6551H44.8671V39.3486Z" fill="url(#paint10_linear)"/>
<path d="M89.0044 19.029L83.1327 0.420898H75.6104V26.2832H80.8545V9.11902L86.2706 26.2832H91.6093L97.1458 9.05027V26.2832H102.39V0.420898H94.9277L89.0044 19.029Z" fill="white"/>
<path d="M127.51 4.61526H135.17V26.2832H140.354V4.61526H147.971V0.420898H127.51V4.61526Z" fill="white"/>
<path d="M156.946 0.420898H151.719V26.2832H156.946V0.420898Z" fill="white"/>
<path d="M176.779 15.6171L176.805 16.5368C176.822 17.0954 176.805 17.6455 176.753 18.1698C176.702 18.6769 176.607 19.1582 176.47 19.6137C176.341 20.0435 176.151 20.4561 175.928 20.817C175.713 21.1608 175.464 21.4359 175.137 21.6851C174.828 21.9258 174.441 22.1149 173.994 22.2524C173.538 22.3985 172.988 22.4673 172.36 22.4673C171.535 22.4673 170.847 22.3298 170.323 22.0719C169.773 21.7969 169.343 21.4445 168.99 20.9976C168.621 20.5248 168.337 19.9747 168.156 19.3559C167.95 18.6855 167.795 17.9807 167.692 17.2673C167.589 16.5368 167.537 15.8148 167.529 15.1014C167.52 14.3622 167.512 13.6832 167.512 13.073C167.512 12.5401 167.529 11.9384 167.546 11.2594C167.572 10.6148 167.641 9.92721 167.752 9.23961C167.864 8.56921 168.027 7.90737 168.251 7.25415C168.466 6.6525 168.758 6.11102 169.119 5.64689C169.472 5.19995 169.901 4.85616 170.435 4.58112C170.933 4.33186 171.578 4.19433 172.352 4.19433C173.237 4.19433 173.968 4.30609 174.527 4.53815C175.077 4.76162 175.498 5.05384 175.816 5.41483C176.143 5.79301 176.384 6.24855 176.53 6.76425C176.693 7.33152 176.779 7.95894 176.796 8.60357L176.822 9.48027H181.963L181.989 8.61217C182.023 7.43466 181.851 6.30871 181.473 5.27731C181.077 4.22872 180.476 3.29187 179.668 2.50972C178.86 1.73617 177.854 1.10874 176.667 0.661805C175.49 0.22346 174.14 0 172.635 0C171.122 0 169.79 0.197678 168.672 0.584453C167.546 0.979823 166.574 1.52129 165.784 2.20889C165.001 2.8793 164.356 3.67864 163.875 4.58112C163.411 5.44062 163.05 6.36889 162.8 7.33153C162.551 8.27697 162.388 9.26538 162.302 10.2624C162.216 11.2422 162.173 12.2049 162.173 13.1245C162.173 14.0958 162.199 15.0928 162.25 16.0898C162.302 17.1212 162.431 18.144 162.637 19.1324C162.843 20.1294 163.17 21.0921 163.591 21.9774C164.038 22.9056 164.666 23.7393 165.457 24.4441C166.256 25.1489 167.262 25.7162 168.44 26.1202C169.601 26.5155 171.019 26.7218 172.635 26.7218C173.77 26.7218 174.81 26.5929 175.73 26.335C176.659 26.0772 177.493 25.7076 178.206 25.2263C178.92 24.7536 179.539 24.1777 180.046 23.5245C180.536 22.8885 180.94 22.1837 181.241 21.4187C181.542 20.6709 181.748 19.8716 181.868 19.0293C181.98 18.2128 182.023 17.3533 181.989 16.4852L181.954 15.6257H176.779V15.6171Z" fill="white"/>
<path d="M1.76237 0.214844H0V26.4897H1.76237V0.214844Z" fill="white"/>
<path d="M24.9565 6.88454C24.7158 5.9219 24.3634 5.03661 23.9077 4.22009C23.4521 3.40356 22.8417 2.69878 22.0852 2.10573C21.3287 1.51267 20.3916 1.04855 19.2826 0.721945C18.1736 0.38674 16.8497 0.214844 15.3108 0.214844H7.15234V26.4897H15.9126C17.3225 26.4897 18.5433 26.3092 19.5749 25.9568C20.5979 25.5958 21.4748 25.1059 22.1883 24.4785C22.9019 23.8511 23.4779 23.1119 23.9163 22.261C24.3548 21.4101 24.6987 20.4904 24.948 19.5106C25.1973 18.5222 25.3606 17.4908 25.4466 16.4164C25.5325 15.342 25.5669 14.2676 25.5669 13.2019C25.5669 12.0931 25.5325 11.0101 25.4552 9.93578C25.3606 8.8614 25.1972 7.84718 24.9565 6.88454ZM23.3403 18.3846C23.0567 19.863 22.5924 21.1093 21.9648 22.0891C21.3372 23.0775 20.5205 23.8253 19.5319 24.3238C18.5346 24.8223 17.3225 25.0715 15.904 25.0715H8.93191V1.61581H15.3108C16.5144 1.66738 17.5632 1.8393 18.4573 2.14872C19.3513 2.44954 20.1079 2.86209 20.7355 3.37779C21.363 3.90209 21.8788 4.51232 22.2743 5.21711C22.6697 5.9219 22.9792 6.69545 23.2028 7.52916C23.4263 8.37147 23.581 9.26536 23.667 10.2194C23.753 11.1734 23.7874 12.1619 23.7874 13.1847C23.7702 15.1701 23.6326 16.9063 23.3403 18.3846Z" fill="white"/>
<path d="M67.1763 24.2206L53.2321 0.214844H50.8594V26.4897H52.6389V2.4753L66.5831 26.4897H68.9559V0.214844H67.1763V24.2206Z" fill="white"/>
<path d="M32.5823 13.5199V12.1275V1.62441H45.4433V0.214844H30.8027V26.4897H45.5035V25.0801H32.5823V13.5199Z" fill="white"/>
<path d="M44.8589 12.1875H34.1816V13.4939H44.8589V12.1875Z" fill="white"/>
<path d="M116.833 0.386533H114.116L105.098 26.309H110.161L112.414 19.2354H120.856L121.217 19.2268L123.444 26.3004H128.567L119.652 0.37793H116.927H116.833V0.386533ZM113.574 15.677L116.772 5.99046L116.824 5.77559L121.131 18.9861L113.574 15.677Z" fill="white"/>
<path d="M113.574 15.6748L112.413 19.2417H121.208L121.139 18.9839L113.574 15.6748Z" fill="white"/>
<defs>
<linearGradient id="paint0_linear" x1="116.832" y1="-0.460137" x2="116.832" y2="36.7893" gradientUnits="userSpaceOnUse">
<stop offset="0.3333" stop-color="#EA2A39"/>
<stop offset="1" stop-color="#F15A29" stop-opacity="0"/>
</linearGradient>
<linearGradient id="paint1_linear" x1="116.809" y1="-0.45407" x2="116.809" y2="36.7878" gradientUnits="userSpaceOnUse">
<stop offset="0.3333" stop-color="#EA2A39"/>
<stop offset="1" stop-color="#F15A29" stop-opacity="0"/>
</linearGradient>
<linearGradient id="paint2_linear" x1="85.5733" y1="-48.9775" x2="89.0229" y2="40.239" gradientUnits="userSpaceOnUse">
<stop offset="0.3333" stop-color="#EA2A39"/>
<stop offset="1" stop-color="#F15A29" stop-opacity="0"/>
</linearGradient>
<linearGradient id="paint3_linear" x1="133.822" y1="-50.8401" x2="137.271" y2="38.3732" gradientUnits="userSpaceOnUse">
<stop offset="0.3333" stop-color="#EA2A39"/>
<stop offset="1" stop-color="#F15A29" stop-opacity="0"/>
</linearGradient>
<linearGradient id="paint4_linear" x1="150.812" y1="-51.4972" x2="154.262" y2="37.7165" gradientUnits="userSpaceOnUse">
<stop offset="0.3333" stop-color="#EA2A39"/>
<stop offset="1" stop-color="#F15A29" stop-opacity="0"/>
</linearGradient>
<linearGradient id="paint5_linear" x1="168.6" y1="-51.6969" x2="172.049" y2="37.5126" gradientUnits="userSpaceOnUse">
<stop offset="0.3333" stop-color="#EA2A39"/>
<stop offset="1" stop-color="#F15A29" stop-opacity="0"/>
</linearGradient>
<linearGradient id="paint6_linear" x1="-2.39262" y1="-45.0923" x2="1.05681" y2="44.1183" gradientUnits="userSpaceOnUse">
<stop offset="0.3333" stop-color="#EA2A39"/>
<stop offset="1" stop-color="#F15A29" stop-opacity="0"/>
</linearGradient>
<linearGradient id="paint7_linear" x1="12.8088" y1="-45.8152" x2="16.2583" y2="43.397" gradientUnits="userSpaceOnUse">
<stop offset="0.3333" stop-color="#EA2A39"/>
<stop offset="1" stop-color="#F15A29" stop-opacity="0"/>
</linearGradient>
<linearGradient id="paint8_linear" x1="56.5399" y1="-47.5466" x2="59.9896" y2="41.6693" gradientUnits="userSpaceOnUse">
<stop offset="0.3333" stop-color="#EA2A39"/>
<stop offset="1" stop-color="#F15A29" stop-opacity="0"/>
</linearGradient>
<linearGradient id="paint9_linear" x1="34.8168" y1="-46.7417" x2="38.2663" y2="42.4712" gradientUnits="userSpaceOnUse">
<stop offset="0.3333" stop-color="#EA2A39"/>
<stop offset="1" stop-color="#F15A29" stop-opacity="0"/>
</linearGradient>
<linearGradient id="paint10_linear" x1="36.2232" y1="-45.4002" x2="39.6178" y2="42.3958" gradientUnits="userSpaceOnUse">
<stop offset="0.3333" stop-color="#EA2A39"/>
<stop offset="1" stop-color="#F15A29" stop-opacity="0"/>
</linearGradient>
</defs>
</svg>
