<svg width="148" height="124" viewBox="0 0 148 124" fill="none" xmlns="http://www.w3.org/2000/svg">
<path d="M111.005 43.1602C122.996 43.1602 132.71 33.4972 132.71 21.5801C132.71 9.65861 122.996 0 111.005 0C99.1266 0 89.495 9.48677 89.3154 21.2543C96.1592 25.5212 100.958 32.7384 101.834 41.116C104.621 42.4149 107.721 43.1602 111.005 43.1602Z" fill="#ED1C24"/>
<path d="M37.0064 0.164062C25.0135 0.164062 15.2988 9.8249 15.2988 21.7442C15.2988 33.6635 25.0135 43.3221 37.0064 43.3221C41.2532 43.3221 45.2015 42.088 48.5505 39.9924C49.6167 33.0944 53.336 27.0622 58.649 22.956C58.6714 22.552 58.7096 22.1526 58.7096 21.7442C58.7096 9.8249 48.9904 0.164062 37.0064 0.164062Z" fill="#ED1C24"/>
<path d="M75.0953 65.4459C87.0841 65.4459 96.8029 55.7832 96.8029 43.8636C96.8029 31.944 87.0841 22.2812 75.0953 22.2812C63.1065 22.2812 53.3877 31.944 53.3877 43.8636C53.3877 55.7832 63.1065 65.4459 75.0953 65.4459Z" fill="#ED1C24"/>
<path d="M118.517 100.343V94.748C118.517 80.0509 109.101 67.5169 95.9717 62.7605C100.049 58.2652 102.673 52.4529 103.126 46.0469H120.217C134.855 46.0469 146.755 57.8885 146.75 72.4289V72.4292V93.981L145.837 94.4422L145.833 94.4439C145.289 94.7205 135.546 99.5015 118.517 100.343Z" stroke="black" stroke-width="2.5"/>
<path d="M31.656 100.176C22.9725 99.5692 13.0467 97.9032 1.98051 94.4662C1.97965 94.4659 1.97879 94.4656 1.97794 94.4654L1.25 94.237V72.4276C1.25 57.887 13.1523 46.043 27.795 46.043H46.2075C46.4907 46.043 46.7703 46.0531 47.0549 46.0689C47.5155 52.4607 50.1352 58.2663 54.2065 62.7565C41.0731 67.5146 31.6604 80.0488 31.656 94.7438V94.7441V100.176Z" stroke="black" stroke-width="2.5"/>
<path d="M110.835 94.7105V94.7099C110.841 80.1719 98.9412 68.3281 84.3031 68.3281H65.8839C51.2413 68.3281 39.3389 80.1765 39.3389 94.7105V116.522L40.0667 116.748C54.57 121.252 67.1516 122.751 77.484 122.751C97.6571 122.751 109.3 117.037 109.919 116.726L110.835 94.7105ZM110.835 94.7105V116.263L109.92 116.725L110.835 94.7105Z" stroke="black" stroke-width="2.5"/>
</svg>
