<svg width="32" height="32" viewBox="0 0 32 32" fill="none" xmlns="http://www.w3.org/2000/svg">
<path d="M14.5 25C14.5 25 13 25 13 23.5C13 22 14.5 17.5 20.5 17.5C26.5 17.5 28 22 28 23.5C28 25 26.5 25 26.5 25H14.5ZM20.5 16C21.6935 16 22.8381 15.5259 23.682 14.682C24.5259 13.8381 25 12.6935 25 11.5C25 10.3065 24.5259 9.16193 23.682 8.31802C22.8381 7.47411 21.6935 7 20.5 7C19.3065 7 18.1619 7.47411 17.318 8.31802C16.4741 9.16193 16 10.3065 16 11.5C16 12.6935 16.4741 13.8381 17.318 14.682C18.1619 15.5259 19.3065 16 20.5 16Z" fill="#890203"/>
<path fill-rule="evenodd" clip-rule="evenodd" d="M11.824 25.0006C11.6016 24.5324 11.4907 24.019 11.5 23.5006C11.5 21.4681 12.52 19.3756 14.404 17.9206C13.4636 17.6309 12.4839 17.4892 11.5 17.5006C5.5 17.5006 4 22.0006 4 23.5006C4 25.0006 5.5 25.0006 5.5 25.0006H11.824Z" fill="#890203"/>
<path d="M10.75 16C11.7446 16 12.6984 15.6049 13.4017 14.9017C14.1049 14.1984 14.5 13.2446 14.5 12.25C14.5 11.2554 14.1049 10.3016 13.4017 9.59835C12.6984 8.89509 11.7446 8.5 10.75 8.5C9.75544 8.5 8.80161 8.89509 8.09835 9.59835C7.39509 10.3016 7 11.2554 7 12.25C7 13.2446 7.39509 14.1984 8.09835 14.9017C8.80161 15.6049 9.75544 16 10.75 16Z" fill="#890203"/>
</svg>
