<svg width="32" height="32" viewBox="0 0 32 32" fill="none" xmlns="http://www.w3.org/2000/svg">
<path d="M10.6791 5.9017L8.9579 4.18054C6.06923 6.38315 4.16753 9.77733 3.99902 13.6289H6.40625C6.4915 12.1025 6.91998 10.615 7.65977 9.27709C8.39956 7.93922 9.4316 6.78546 10.6791 5.9017ZM25.5918 13.6289H27.999C27.8185 9.77733 25.9168 6.38315 23.0401 4.18054L21.331 5.9017C22.5731 6.78981 23.6006 7.94485 24.3379 9.282C25.0752 10.6192 25.5037 12.1045 25.5918 13.6289ZM23.2207 14.2307C23.2207 10.5356 21.2468 7.44233 17.8044 6.62387V5.80542C17.8044 4.80642 16.998 4 15.999 4C15 4 14.1936 4.80642 14.1936 5.80542V6.62387C10.7392 7.44233 8.77736 10.5236 8.77736 14.2307V20.2487L6.37014 22.656V23.8596H25.6279V22.656L23.2207 20.2487V14.2307ZM15.999 27.4704C16.1675 27.4704 16.324 27.4584 16.4805 27.4223C17.2628 27.2538 17.9007 26.7242 18.2137 26.002C18.334 25.7131 18.3942 25.4002 18.3942 25.0632H13.5798C13.5918 26.3872 14.663 27.4704 15.999 27.4704Z" fill="#890203"/>
</svg>
