<svg width="32" height="32" viewBox="0 0 32 32" fill="none" xmlns="http://www.w3.org/2000/svg">
<path d="M25.3217 2.66797H12.0137H9.33267L9.33368 12.864L3.06435 19.0533C2.8765 19.2391 2.74809 19.4765 2.69539 19.7354C2.6427 19.9943 2.66634 20.668 2.66634 20.668V21.3346C2.66634 21.3346 3.73615 21.3343 4.00035 21.3346V28.0013L3.99933 29.3346H5.33368H26.667H27.9993L28.0003 28.0013V2.66797H25.3217ZM14.563 20.1493V26.668H6.66702V19.244L10.6497 15.312L14.563 19.316V20.1493ZM17.3337 12.0013H14.667V9.33464H17.3337V12.0013ZM22.667 22.668H20.0003V20.0013H22.667V22.668ZM22.667 17.3346H20.0003V14.668H22.667V17.3346ZM22.667 12.0013H20.0003V9.33464H22.667V12.0013Z" fill="#890203"/>
<path d="M9.33301 20H11.9997V22.6667H9.33301V20Z" fill="#890203"/>
</svg>
