<svg width="32" height="32" viewBox="0 0 32 32" fill="none" xmlns="http://www.w3.org/2000/svg">
<path d="M26.8933 21.2042L25.8267 20.8844C25.7528 20.6212 25.649 20.3673 25.5174 20.1276L26.0507 19.1362C26.0713 19.0994 26.0788 19.0567 26.072 19.0151C26.0653 18.9735 26.0446 18.9354 26.0133 18.907L25.2401 18.1288C25.2103 18.0999 25.1723 18.0807 25.1313 18.0741C25.0903 18.0674 25.0482 18.0735 25.0108 18.0915L24.0242 18.6245C23.7813 18.4927 23.5259 18.3855 23.2616 18.3047L22.9363 17.2387C22.922 17.1994 22.8958 17.1655 22.8614 17.1416C22.8271 17.1178 22.7861 17.1052 22.7443 17.1055H21.6351C21.5935 17.1066 21.5533 17.1206 21.5199 17.1453C21.4865 17.1701 21.4615 17.2046 21.4484 17.2441L21.1284 18.3101C20.859 18.3884 20.5996 18.4975 20.3552 18.6352L19.3899 18.1022C19.3524 18.0822 19.3096 18.0746 19.2674 18.0804C19.2253 18.0861 19.1861 18.1049 19.1553 18.1342L18.3713 18.9017C18.3405 18.9314 18.3201 18.9704 18.3134 19.0127C18.3067 19.055 18.3139 19.0984 18.334 19.1362L18.8673 20.1063C18.7244 20.347 18.6082 20.6026 18.5207 20.8685L17.4541 21.1936C17.4138 21.2052 17.3783 21.2298 17.3533 21.2635C17.3283 21.2972 17.315 21.3382 17.3154 21.3801V22.4728C17.315 22.5148 17.3283 22.5557 17.3533 22.5894C17.3783 22.6231 17.4138 22.6477 17.4541 22.6593L18.5207 22.9845C18.6006 23.2455 18.7079 23.4974 18.8406 23.736L18.3074 24.7487C18.2872 24.7865 18.28 24.8299 18.2867 24.8722C18.2935 24.9145 18.3138 24.9535 18.3447 24.9832L19.1393 25.7561C19.1701 25.7853 19.2093 25.8041 19.2514 25.8099C19.2936 25.8156 19.3364 25.808 19.3739 25.788L20.3712 25.255C20.6085 25.3826 20.8588 25.4845 21.1178 25.5588L21.4377 26.6515C21.4512 26.6918 21.4769 26.7269 21.5114 26.7517C21.5458 26.7766 21.5872 26.79 21.6297 26.7901H22.723C22.7645 26.7889 22.8048 26.775 22.8382 26.7502C22.8715 26.7254 22.8965 26.691 22.9096 26.6515L23.2296 25.5588C23.4855 25.4854 23.7323 25.3835 23.9655 25.255L24.9734 25.788C25.011 25.808 25.0538 25.8156 25.0959 25.8099C25.138 25.8041 25.1773 25.7853 25.2081 25.7561L25.9867 24.9832C26.0159 24.9524 26.0348 24.9132 26.0405 24.8711C26.0463 24.829 26.0386 24.7862 26.0187 24.7487L25.4854 23.7466C25.613 23.5131 25.7149 23.2665 25.7894 23.0111L26.8559 22.686C26.896 22.6731 26.9312 22.6484 26.9569 22.6151C26.9826 22.5818 26.9976 22.5414 26.9999 22.4994V21.3961C27.0012 21.3575 26.992 21.3192 26.9732 21.2854C26.9544 21.2516 26.9268 21.2236 26.8933 21.2042ZM22.1843 23.72C21.8318 23.7211 21.4869 23.6175 21.1933 23.4226C20.8997 23.2276 20.6706 22.9499 20.535 22.6247C20.3993 22.2995 20.3633 21.9414 20.4314 21.5958C20.4995 21.2501 20.6688 20.9324 20.9176 20.6829C21.1665 20.4334 21.4839 20.2633 21.8296 20.1942C22.1752 20.125 22.5336 20.16 22.8594 20.2946C23.1852 20.4292 23.4637 20.6573 23.6596 20.9502C23.8556 21.2431 23.9602 21.5875 23.9602 21.9398C23.9602 22.411 23.7733 22.863 23.4404 23.1967C23.1075 23.5304 22.6558 23.7186 22.1843 23.72Z" fill="#890203"/>
<path d="M15.5003 15.8952C18.5089 15.8952 20.9479 13.4562 20.9479 10.4476C20.9479 7.43897 18.5089 5 15.5003 5C12.4917 5 10.0527 7.43897 10.0527 10.4476C10.0527 13.4562 12.4917 15.8952 15.5003 15.8952Z" fill="#890203"/>
<mask id="mask0_3077:30057" style="mask-type:alpha" maskUnits="userSpaceOnUse" x="4" y="17" width="14" height="10">
<path d="M17.1822 26.7901C16.9359 26.5658 16.7752 26.2741 16.7242 25.9586C16.6731 25.6432 16.7345 25.321 16.899 25.0404L17.294 24.3542L16.4817 24.1278C16.1504 24.0323 15.8621 23.84 15.6603 23.5799C15.4586 23.3199 15.3545 23.0063 15.3638 22.6869V21.2803C15.3632 20.9622 15.4737 20.6524 15.6791 20.3966C15.8844 20.1408 16.1736 19.9527 16.504 19.8599L17.3163 19.6335L16.9288 18.9473C16.7691 18.6705 16.7083 18.3544 16.7551 18.0439C16.802 17.7334 16.954 17.4445 17.1896 17.2182C16.6163 17.149 16.0389 17.1123 15.4607 17.1084C13.7529 17.0714 12.0573 17.3818 10.4947 18.0176C8.93219 18.6533 5.12011 21.9708 4 23.1583V26.7901H5.81586C5.81586 26.9721 6.2814 26.6614 6.42115 26.7901C6.56091 26.9188 6.96873 26.7901 7.16638 26.7901H17.1822Z" fill="#890203"/>
</mask>
<g mask="url(#mask0_3077:30057)">
<path d="M7.02666 26.7887C7.02666 26.7887 5.21094 26.7887 5.21094 24.973C5.21094 23.1573 7.02666 17.7101 16.1053 17.7101C25.1839 17.7101 26.9997 23.1573 26.9997 24.973C26.9997 26.7887 25.1839 26.7887 25.1839 26.7887H7.02666ZM16.1053 15.8944C17.55 15.8944 18.9355 15.3205 19.957 14.2989C20.9786 13.2774 21.5525 11.8919 21.5525 10.4472C21.5525 9.0025 20.9786 7.61699 19.957 6.59544C18.9355 5.5739 17.55 5 16.1053 5C14.6606 5 13.2751 5.5739 12.2536 6.59544C11.232 7.61699 10.6581 9.0025 10.6581 10.4472C10.6581 11.8919 11.232 13.2774 12.2536 14.2989C13.2751 15.3205 14.6606 15.8944 16.1053 15.8944Z" fill="#890203"/>
</g>
</svg>
