<svg width="96" height="96" viewBox="0 0 96 96" fill="none" xmlns="http://www.w3.org/2000/svg">
<path d="M96 45.8247L48.7893 1.78932L48.0001 1L34.5261 13.5817V8.28713V7.12806H20.9072V8.28713V26.2446L0 45.8236H1.63776H2.79698H9.12311V93.0443L9.17158 94.2045H86.8783V89.561V45.8247H93.2033H94.3624H96ZM85.7192 43.5066H84.5602V88V91.8864H80.6228H11.4412V44.6657V43.5066H5.74555L23.224 27.2287V26.7499V9.44734H32.2066V16.2431V17.7067V19.0411L47.9999 4.21997L90.2545 43.5066H85.7192Z" fill="#231F20"/>
<path d="M30.5996 20.1992L24.5996 25.5992V11.1992H30.5996V20.1992Z" fill="#ED1C24"/>
<path d="M48.4616 58C42.352 62.9338 33.652 62.9369 27.5384 58C21.8202 61.519 18 67.829 18 75.0143V85H58V75.0143C58 67.829 54.1798 61.519 48.4616 58Z" fill="#231F20"/>
<path d="M38 56C43.5228 56 48 51.299 48 45.5C48 39.701 43.5228 35 38 35C32.4772 35 28 39.701 28 45.5C28 51.299 32.4772 56 38 56Z" fill="#231F20"/>
<path d="M67.8051 70.9693L69.5243 68.5333L69.5207 68.1287L69.4521 52.3215C71.0362 51.6195 72.3538 50.408 73.1947 48.9063C76.5365 49.199 78.4769 47.6714 79.0716 45.8191C79.2092 45.3906 79.2726 44.9438 79.2521 44.501C79.1487 42.2688 76.6197 40.6335 73.4945 40.778C73.325 40.7858 73.1614 40.8007 73.0009 40.8193C71.5743 38.5354 69.0623 37.0471 66.1978 37.0597C62.7362 37.0746 59.6999 39.2976 58.6424 42.5912C57.388 46.4984 59.3196 50.7292 63.0761 52.3496L63.079 53.0135L63.0824 53.1974L64.5225 55.3982L63.0384 57.9546L63.2354 58.2368L64.5432 60.1801L63.0602 62.7329L63.2562 63.0189L64.4958 64.8609L63.1443 66.1131L63.1377 66.5623L63.1446 68.1563L63.1615 68.6669L66.6647 71.1699L67.3154 71.6328L67.8051 70.9693ZM77.6597 44.5748C77.6908 45.2452 77.3831 45.9419 76.837 46.4388C76.3341 46.8965 75.4272 47.3816 73.8582 47.3478C74.356 45.709 74.3097 43.9563 73.7468 42.365C75.8285 42.3271 77.6013 43.3158 77.6597 44.5748ZM64.7369 67.751L64.7331 66.8857L66.6399 65.2634L66.183 64.5131L64.8753 62.5699L66.458 60.2244L66.1622 59.7311L64.8545 57.7878L66.3534 55.3358L66.1415 54.9491L64.6718 52.7652L64.6676 51.8008C64.6676 51.8008 64.4686 51.1687 64.1329 51.0517C60.8634 49.9119 59.1065 46.3597 60.16 43.0785C61.0059 40.4438 63.435 38.6656 66.2045 38.6536C68.3165 38.6444 70.1791 39.6525 71.3557 41.2329C70.2271 41.6914 69.4116 42.4322 68.8318 43.1876C68.2508 42.3701 67.2953 41.837 66.2184 41.8416C64.4383 41.8493 63.0367 43.2959 63.0441 45.0435C63.0518 46.8014 64.4882 48.2253 66.2461 48.2176C67.9067 48.2105 69.266 46.9427 69.4077 45.3076C69.8712 44.2935 70.6971 43.1522 72.1454 42.6394C72.7087 44.0334 72.7537 45.5814 72.3046 46.9802C71.703 48.8538 70.2373 50.369 68.3837 51.0332C68.0658 51.1472 67.8542 51.4492 67.8556 51.7869L67.9255 67.8943L66.9392 69.3878L64.7369 67.751ZM67.7505 45.5176C67.5391 46.1762 66.9318 46.6206 66.2393 46.6236C65.3603 46.6275 64.6421 45.9155 64.6383 45.0366C64.6344 44.1598 65.3373 43.4395 66.2254 43.4356C67.1043 43.4318 68.0816 44.4862 67.7505 45.5176Z" fill="#231F20"/>
</svg>
