<svg width="96" height="96" viewBox="0 0 96 96" fill="none" xmlns="http://www.w3.org/2000/svg">
<path fill-rule="evenodd" clip-rule="evenodd" d="M48.7893 0.789318L96 44.8248H94.3624H93.2033H86.8783V67.9195C86.1661 67.2075 85.3903 66.5591 84.5602 65.9836V42.5066H85.7192H90.2545L47.9999 3.21997L32.2067 18.0411V16.7067V15.2431V8.44734H23.224V25.7499V26.2287L5.74555 42.5066H11.4412V43.6657V90.8864H62.377C63.1276 91.7403 63.9635 92.5175 64.8713 93.2045H9.17158L9.12311 92.0443V44.8236H2.79698H1.63776H0L20.9072 25.2446V7.28714V6.12806H34.5261V7.28714V12.5817L48.0001 0L48.7893 0.789318ZM86.8783 70.6388V88.561L81.6 93.2045H68.2609C67.033 92.586 65.9017 91.8037 64.8958 90.8864H80.6229L82.8 88.8L84.5602 87V68.2408C85.4186 68.9516 86.1965 69.7561 86.8783 70.6388Z" fill="#231F20"/>
<path d="M30.5996 19.1992L24.5996 24.5992V10.1992H30.5996V19.1992Z" fill="#ED1C24"/>
<path d="M54.6023 49.3945C51.0969 52.2294 46.1053 52.2311 42.5977 49.3945C39.3169 51.4164 37.125 55.042 37.125 59.1705V64.908H60.075V59.1705C60.075 55.042 57.8831 51.4164 54.6023 49.3945Z" fill="#231F20"/>
<path d="M48.5998 47.6976C51.7685 47.6976 54.3373 45.1289 54.3373 41.9602C54.3373 38.7914 51.7685 36.2227 48.5998 36.2227C45.4311 36.2227 42.8623 38.7914 42.8623 41.9602C42.8623 45.1289 45.4311 47.6976 48.5998 47.6976Z" fill="#231F20"/>
<path d="M73.7276 45.5703C70.2224 48.405 65.2307 48.4071 61.7231 45.5704C60.6857 46.2099 59.7573 47.0094 58.9727 47.9347C64.9219 53.4306 63.7649 60.3456 63.9003 61.0837H79.2003V55.3462C79.2003 51.2178 77.0084 47.5922 73.7276 45.5703Z" fill="#231F20"/>
<path d="M67.7248 43.8734C70.8935 43.8734 73.4623 41.3047 73.4623 38.1359C73.4623 34.9672 70.8935 32.3984 67.7248 32.3984C64.5561 32.3984 61.9873 34.9672 61.9873 38.1359C61.9873 41.3047 64.5561 43.8734 67.7248 43.8734Z" fill="#231F20"/>
<path d="M38.2277 47.9347C37.443 47.0094 36.5144 46.2099 35.4772 45.5704C31.9718 48.4051 26.9802 48.4069 23.4727 45.5703C20.1919 47.5922 18 51.2178 18 55.3462V61.0837H33.3C33.4363 60.3405 32.2737 53.4348 38.2277 47.9347Z" fill="#231F20"/>
<path d="M29.4748 43.8734C32.6435 43.8734 35.2123 41.3047 35.2123 38.1359C35.2123 34.9672 32.6435 32.3984 29.4748 32.3984C26.3061 32.3984 23.7373 34.9672 23.7373 38.1359C23.7373 41.3047 26.3061 43.8734 29.4748 43.8734Z" fill="#231F20"/>
<path d="M75 64.8008C66.729 64.8008 60 71.5298 60 79.8008C60 88.0718 66.729 94.8008 75 94.8008C83.271 94.8008 90 88.0718 90 79.8008C90 71.5298 83.271 64.8008 75 64.8008ZM82.5 82.3008H77.5V87.3008H75H72.5V82.3008H67.5V79.8008V77.3008H72.5V72.3008H75H77.5V77.3008H82.5V79.8008V82.3008Z" fill="#ED1C24"/>
</svg>
