<svg width="32" height="32" viewBox="0 0 32 32" fill="none" xmlns="http://www.w3.org/2000/svg">
<path d="M29.3337 16.0013C29.3337 18.4191 28.7381 20.6502 27.547 22.6946C26.3559 24.7391 24.7381 26.3569 22.6937 27.548C20.6492 28.7391 18.4181 29.3346 16.0003 29.3346C13.5826 29.3346 11.3514 28.7391 9.307 27.548C7.26255 26.3569 5.64477 24.7391 4.45366 22.6946C3.26255 20.6502 2.66699 18.4191 2.66699 16.0013C2.66699 13.5835 3.26255 11.3524 4.45366 9.30797C5.64477 7.26352 7.26255 5.64575 9.307 4.45464C11.3514 3.26352 13.5826 2.66797 16.0003 2.66797C18.4181 2.66797 20.6492 3.26352 22.6937 4.45464C24.7381 5.64575 26.3559 7.26352 27.547 9.30797C28.7381 11.3524 29.3337 13.5835 29.3337 16.0013ZM26.2137 16.0013C26.2137 13.1924 25.2137 10.788 23.2137 8.78797C21.2137 6.78797 18.8092 5.78797 16.0003 5.78797C13.7603 5.78797 11.7514 6.44575 9.97367 7.7613L24.2404 22.028C25.5559 20.2502 26.2137 18.2413 26.2137 16.0013ZM22.027 24.2413L7.76033 9.97464C6.44477 11.7524 5.787 13.7613 5.787 16.0013C5.787 18.8102 6.787 21.2146 8.787 23.2146C10.787 25.2146 13.1915 26.2146 16.0003 26.2146C18.2403 26.2146 20.2492 25.5569 22.027 24.2413Z" fill="white"/>
</svg>
