<svg width="96" height="96" viewBox="0 0 96 96" fill="none" xmlns="http://www.w3.org/2000/svg">
<path fill-rule="evenodd" clip-rule="evenodd" d="M48.7893 0.789318L96 44.8248H94.3624H93.2033H86.8783V67.9195C86.1661 67.2075 85.3903 66.5591 84.5602 65.9836V42.5066H85.7192H90.2545L47.9999 3.21997L32.2066 18.0411V16.7067V15.2431V8.44734H23.224V25.7499V26.2287L5.74555 42.5066H11.4412V43.6657V90.8864H62.377C63.1276 91.7403 63.9635 92.5175 64.8713 93.2045H9.17158L9.12311 92.0443V44.8236H2.79698H1.63776H0L20.9072 25.2446V7.28714V6.12806H34.5261V7.28714V12.5817L48.0001 0L48.7893 0.789318ZM86.8783 70.6388V88.561L81.6 93.2045H68.2609C67.033 92.586 65.9017 91.8037 64.8958 90.8864H80.6228L82.8 88.8L84.5602 87V68.2408C85.4186 68.9516 86.1965 69.7561 86.8783 70.6388Z" fill="#231F20"/>
<path d="M30.5996 19.1992L24.5996 24.5992V10.1992H30.5996V19.1992Z" fill="#ED1C24"/>
<path d="M75 64.8008C66.729 64.8008 60 71.5298 60 79.8008C60 88.0718 66.729 94.8008 75 94.8008C83.271 94.8008 90 88.0718 90 79.8008C90 71.5298 83.271 64.8008 75 64.8008ZM82.5 82.3008H77.5V87.3008H75H72.5V82.3008H67.5V79.8008V77.3008H72.5V72.3008H75H77.5V77.3008H82.5V79.8008V82.3008Z" fill="#ED1C24"/>
<path d="M31.3719 37.5449C34.1133 37.5449 36.3436 35.3146 36.3436 32.5732C36.3436 29.8319 34.1133 27.6016 31.3719 27.6016C28.6306 27.6016 26.4004 29.8319 26.4004 32.5732C26.4004 35.3146 28.6306 37.5449 31.3719 37.5449Z" fill="#231F20"/>
<path d="M65.0333 37.5449C62.292 37.5449 60.0617 35.3146 60.0617 32.5732C60.0617 29.8319 62.292 27.6016 65.0333 27.6016C67.7747 27.6016 70.0049 29.8319 70.0049 32.5732C70.0049 35.3146 67.7747 37.5449 65.0333 37.5449Z" fill="#231F20"/>
<path d="M26.8906 40.1836V54.9916L26.8906 59.2859H36.7815V66.9126V67.9646H43.8447V66.9126V55.9113V52.2865H35.8548V40.1836L31.3728 40.1836L26.8906 40.1836Z" fill="#231F20"/>
<path d="M69.5146 40.1836V54.9916L69.5146 59.2859H59.6238V66.9126V67.9646H52.5605V66.9126V55.9113V52.2865H60.5505V40.1836L65.0325 40.1836L69.5146 40.1836Z" fill="#231F20"/>
<path d="M56.7282 47.289V46.0117V44.7344H39.2959V46.0117V47.289H46.7346V68.4157H48.0119H49.2892V47.289H56.7282Z" fill="#231F20"/>
</svg>
