<svg width="112" height="112" viewBox="0 0 112 112" fill="none" xmlns="http://www.w3.org/2000/svg">
<path d="M55.9984 22.3984C57.4836 22.3984 58.908 22.9884 59.9582 24.0386C61.0084 25.0888 61.5984 26.5132 61.5984 27.9984V61.5984C61.5984 63.0836 61.0084 64.508 59.9582 65.5582C58.908 66.6084 57.4836 67.1984 55.9984 67.1984C54.5132 67.1984 53.0888 66.6084 52.0386 65.5582C50.9884 64.508 50.3984 63.0836 50.3984 61.5984V27.9984C50.3984 26.5132 50.9884 25.0888 52.0386 24.0386C53.0888 22.9884 54.5132 22.3984 55.9984 22.3984Z" fill="#890203"/>
<path d="M55.9984 78.3984C54.5132 78.3984 53.0888 78.9884 52.0386 80.0386C50.9884 81.0888 50.3984 82.5132 50.3984 83.9984C50.3984 85.4836 50.9884 86.908 52.0386 87.9582C53.0888 89.0084 54.5132 89.5984 55.9984 89.5984C57.4836 89.5984 58.908 89.0084 59.9582 87.9582C61.0084 86.908 61.5984 85.4836 61.5984 83.9984C61.5984 82.5132 61.0084 81.0888 59.9582 80.0386C58.908 78.9884 57.4836 78.3984 55.9984 78.3984Z" fill="#890203"/>
<path fill-rule="evenodd" clip-rule="evenodd" d="M56 0C25.0712 0 0 25.0712 0 56C0 86.9288 25.0712 112 56 112C86.9288 112 112 86.9288 112 56C112 25.0712 86.9288 0 56 0ZM11.2 56C11.2 67.8817 15.92 79.2768 24.3216 87.6784C32.7232 96.08 44.1183 100.8 56 100.8C67.8817 100.8 79.2768 96.08 87.6784 87.6784C96.08 79.2768 100.8 67.8817 100.8 56C100.8 44.1183 96.08 32.7232 87.6784 24.3216C79.2768 15.92 67.8817 11.2 56 11.2C44.1183 11.2 32.7232 15.92 24.3216 24.3216C15.92 32.7232 11.2 44.1183 11.2 56Z" fill="#890203"/>
</svg>
