<svg width="26" height="32" viewBox="0 0 26 32" fill="none" xmlns="http://www.w3.org/2000/svg">
<path d="M16 0H3.2C2.35131 0 0 0 0 0C0 0 0 2.35131 0 3.2V28.8C0 29.6487 0 32 0 32C0 32 2.35131 32 3.2 32H22.4C23.2487 32 25.6 32 25.6 32C25.6 32 25.6 29.6487 25.6 28.8V9.6L16 0ZM8.3824 23.1136C8.3824 24.9568 7.5008 25.6 6.0816 25.6C5.7456 25.6 5.304 25.5424 5.0176 25.4448L5.1792 24.2656C5.3824 24.3328 5.6416 24.3808 5.9296 24.3808C6.544 24.3808 6.9264 24.1024 6.9264 23.0944V19.0256H8.384V23.1136H8.3824ZM13.6528 22.5296C13.152 22.9984 12.416 23.2112 11.552 23.2112C11.36 23.2112 11.1872 23.2 11.0528 23.1808V25.4928H9.6032V19.112C10.2576 19.0135 10.9191 18.9691 11.5808 18.9792C12.4816 18.9792 13.1248 19.1504 13.5552 19.496C13.9696 19.8224 14.248 20.36 14.248 20.9936C14.248 21.6272 14.0352 22.1648 13.6528 22.5296ZM20.5824 25.1968C20.1344 25.3504 19.2784 25.5616 18.424 25.5616C17.2448 25.5616 16.3904 25.264 15.7952 24.688C15.2016 24.1312 14.8752 23.288 14.8832 22.3376C14.8944 20.1872 16.456 18.96 18.5776 18.96C19.4112 18.96 20.056 19.1248 20.3712 19.2768L20.0656 20.4464C19.7104 20.2928 19.2704 20.168 18.56 20.168C17.3424 20.168 16.4192 20.8592 16.4192 22.2608C16.4192 23.5936 17.256 24.3808 18.4528 24.3808C18.7904 24.3808 19.0576 24.3424 19.1744 24.2832V22.9296H18.176V21.7888H20.5824V25.1968ZM16 11.2H14.4V3.2L22.4 11.2H16Z" fill="#FF8A00"/>
<path d="M11.6559 20.083C11.3583 20.083 11.1567 20.1118 11.0527 20.1406V22.0494C11.1759 22.0782 11.3311 22.0862 11.5439 22.0862C12.3183 22.0862 12.7983 21.6926 12.7983 21.0318C12.7983 20.4366 12.3871 20.083 11.6559 20.083Z" fill="#FF8A00"/>
</svg>
