<svg width="112" height="112" viewBox="0 0 112 112" fill="none" xmlns="http://www.w3.org/2000/svg">
<path d="M112 56C112 66.1547 109.499 75.5253 104.496 84.112C99.4933 92.6987 92.6987 99.4933 84.112 104.496C75.5253 109.499 66.1547 112 56 112C45.8453 112 36.4747 109.499 27.888 104.496C19.3013 99.4933 12.5067 92.6987 7.504 84.112C2.50133 75.5253 0 66.1547 0 56C0 45.8453 2.50133 36.4747 7.504 27.888C12.5067 19.3013 19.3013 12.5067 27.888 7.504C36.4747 2.50133 45.8453 0 56 0C66.1547 0 75.5253 2.50133 84.112 7.504C92.6987 12.5067 99.4933 19.3013 104.496 27.888C109.499 36.4747 112 45.8453 112 56ZM98.896 56C98.896 44.2027 94.696 34.104 86.296 25.704C77.896 17.304 67.7973 13.104 56 13.104C46.592 13.104 38.1547 15.8667 30.688 21.392L90.608 81.312C96.1333 73.8453 98.896 65.408 98.896 56ZM81.312 90.608L21.392 30.688C15.8667 38.1547 13.104 46.592 13.104 56C13.104 67.7973 17.304 77.896 25.704 86.296C34.104 94.696 44.2027 98.896 56 98.896C65.408 98.896 73.8453 96.1333 81.312 90.608Z" fill="#890203"/>
</svg>
