<svg width="24" height="24" viewBox="0 0 24 24" fill="none" xmlns="http://www.w3.org/2000/svg">
<path d="M18.9193 16.649L17.4904 15.1268L17.2998 16.2404C18.7831 14.5149 19.6761 12.2749 19.6761 9.83806C19.6761 4.40442 15.2717 0 9.83806 0C4.40442 0 0 4.40442 0 9.83806C0 15.2717 4.40442 19.6761 9.83806 19.6761C12.2749 19.6761 14.5149 18.7831 16.2404 17.2998L15.1268 17.4904L16.649 18.9193L21.7448 24L24 21.7448L18.9193 16.649ZM9.83806 16.649C6.06933 16.649 3.0271 13.6068 3.0271 9.83806C3.0271 6.06933 6.06933 3.0271 9.83806 3.0271C13.6068 3.0271 16.649 6.06933 16.649 9.83806C16.649 13.6068 13.6068 16.649 9.83806 16.649Z" fill="black"/>
</svg>
