<svg width="24" height="19" viewBox="0 0 24 19" fill="none" xmlns="http://www.w3.org/2000/svg">
<path d="M8.80715 9.07317C8.80715 9.89989 9.13194 10.6928 9.71006 11.2773C10.2882 11.8619 11.0723 12.1903 11.8899 12.1903C12.7075 12.1903 13.4916 11.8619 14.0697 11.2773C14.6479 10.6928 14.9726 9.89989 14.9726 9.07317C14.9726 8.24645 14.6479 7.45359 14.0697 6.869C13.4916 6.28442 12.7075 5.95601 11.8899 5.95601C11.0723 5.95601 10.2882 6.28442 9.71006 6.869C9.13194 7.45359 8.80715 8.24645 8.80715 9.07317ZM23.841 8.35511C21.2317 2.7971 17.2875 0 12 0C6.70978 0 2.76827 2.7971 0.158941 8.35789C0.0542802 8.58199 0 8.82674 0 9.07456C0 9.32239 0.0542802 9.56714 0.158941 9.79123C2.76827 15.3492 6.71253 18.1463 12 18.1463C17.2902 18.1463 21.2317 15.3492 23.841 9.78845C24.053 9.33757 24.053 8.81433 23.841 8.35511ZM11.8899 13.9716C9.21451 13.9716 7.04558 11.7784 7.04558 9.07317C7.04558 6.36792 9.21451 4.17477 11.8899 4.17477C14.5653 4.17477 16.7342 6.36792 16.7342 9.07317C16.7342 11.7784 14.5653 13.9716 11.8899 13.9716Z" fill="#231F20"/>
</svg>
