<svg width="28" height="28" viewBox="0 0 28 28" fill="none" xmlns="http://www.w3.org/2000/svg">
<path d="M27.3337 14C27.3337 16.4178 26.7381 18.6489 25.547 20.6933C24.3559 22.7378 22.7381 24.3555 20.6937 25.5467C18.6492 26.7378 16.4181 27.3333 14.0003 27.3333C11.5826 27.3333 9.35145 26.7378 7.307 25.5467C5.26255 24.3555 3.64477 22.7378 2.45366 20.6933C1.26255 18.6489 0.666992 16.4178 0.666992 14C0.666992 11.5822 1.26255 9.3511 2.45366 7.30666C3.64477 5.26221 5.26255 3.64443 7.307 2.45332C9.35145 1.26221 11.5826 0.666656 14.0003 0.666656C16.4181 0.666656 18.6492 1.26221 20.6937 2.45332C22.7381 3.64443 24.3559 5.26221 25.547 7.30666C26.7381 9.3511 27.3337 11.5822 27.3337 14ZM24.2137 14C24.2137 11.1911 23.2137 8.78666 21.2137 6.78666C19.2137 4.78666 16.8092 3.78666 14.0003 3.78666C11.7603 3.78666 9.75145 4.44443 7.97367 5.75999L22.2404 20.0267C23.5559 18.2489 24.2137 16.24 24.2137 14ZM20.027 22.24L5.76033 7.97332C4.44477 9.7511 3.787 11.76 3.787 14C3.787 16.8089 4.787 19.2133 6.787 21.2133C8.787 23.2133 11.1915 24.2133 14.0003 24.2133C16.2403 24.2133 18.2492 23.5555 20.027 22.24Z" fill="#B5B5B5"/>
</svg>
